# xmcd
#
# Track frame offsets: 
#        150
#        13167
#        27650
#        41073
#        54723
#        68234
#        81661
#        95012
#        108684
#        122674
#        135596
#        151318
#
# Disc length: 2192 seconds
#
# Revision: 1
# Processed by: cddbd v1.5.2PL0 Copyright (c) Steve Scherf et al.
# Submitted via: ExactAudioCopy v0.95b4
#
DISCID=af088e0c
DTITLE=Roane County Ramblers - Complete Recordings 1928-1929
DYEAR=2004
DGENRE=String Band
TTITLE0=Callahan Rag
TTITLE1=Hometown Blues
TTITLE2=Johnson City Rag
TTITLE3=Everybody Two-Step
TTITLE4=Green River March
TTITLE5=Roane County Rag
TTITLE6=Step High Waltz
TTITLE7=Free a Little Bird - 1930 Model
TTITLE8=Southern No. 111
TTITLE9=Alabama Trot
TTITLE10=Tennessee Waltz
TTITLE11=McCarroll's Breakdown
EXTD=Recorded Johnson City US-TN, 1928-10-15 (tracks 2,7,9,11) and 1929-
EXTD=10-21 (1,3,8,10), and Atlanta US-GA, 1929-04-15 (4-6,12).\nJames 
EXTD="Jimmy" McCarroll (1892-04-27/1985): fiddle\nLuke Brandon, Curly 
EXTD=Fox (1,3,8,10): guitars\nHoward Wyatt: tenor banjo\nJohn Kelly: m
EXTD=andolin\nRoane County is in eastern Tennessee - its county seat is
EXTD=Kingston US-TN.\nCD: County Records CO-CD-3530 (2004-06-22), UPC
EXTD=009001353023.
EXTT0=
EXTT1=
EXTT2=
EXTT3=
EXTT4=
EXTT5=
EXTT6=
EXTT7=
EXTT8=
EXTT9=
EXTT10=
EXTT11=
PLAYORDER=
